# File generated by ImageToStl.com - Free Image and 3D model conversion tools

mtllib model.mtl

o obj1
v 0.404128 0.543166 0.115453
v 0.415013 0.53228 0.115453
v 0.425899 0.543166 0.115453
v 0.415013 0.554051 0.115453
v 0.404128 0.543166 -0.115453
v 0.415013 0.554051 -0.115453
v 0.415013 0.53228 -0.115453
v 0.425899 0.543166 -0.115453
vn -0.99889 0 0.04709
vn 0 -0.99889 0.04709
vn 0.99889 0 0.04709
vn 0 0.99889 0.04709
vn -0.99889 0 -0.04709
vn 0 0.99889 -0.04709
vn 0 -0.99889 -0.04709
vn 0.99889 0 -0.04709
usemtl mat0
f 1//1 2//2 3//3
f 3//3 4//4 1//1
f 5//5 1//1 4//4
f 4//4 6//6 5//5
f 7//7 5//5 6//6
f 6//6 8//8 7//7
f 2//2 7//7 8//8
f 8//8 3//3 2//2
f 4//4 3//3 8//8
f 8//8 6//6 4//4
f 5//5 7//7 2//2
f 2//2 1//1 5//5
# Vertices: 8, normals: 8, texture coordinates: 0, faces: 12

o obj2
v 0.378395 -0.414938 -0.194535
v 0.392781 -0.595874 -0.201463
v 0.26394 -0.595874 -0.363023
v 0.253985 -0.414938 -0.35054
v 0.0777606 -0.595874 -0.452683
v 0.0742075 -0.414938 -0.437116
v -0.128883 -0.595874 -0.452683
v -0.12533 -0.414938 -0.437116
v -0.315063 -0.595874 -0.363024
v -0.305108 -0.414938 -0.35054
v -0.443904 -0.595874 -0.201463
v -0.429518 -0.414938 -0.194535
v -0.429518 -0.414938 0.194535
v -0.443904 -0.595874 0.201463
v -0.315063 -0.595874 0.363023
v -0.305108 -0.414938 0.35054
v -0.128884 -0.595874 0.452683
v -0.125331 -0.414938 0.437116
v 0.0777602 -0.595874 0.452683
v 0.0742072 -0.414938 0.437116
v 0.26394 -0.595874 0.363023
v 0.253985 -0.414938 0.35054
v 0.392781 -0.595874 0.201463
v 0.378395 -0.414938 0.194535
v 0.281827 -0.730756 -0.385453
v 0.418628 -0.730756 -0.21391
v -0.0255617 -0.730756 0
v 0.0841442 -0.730756 -0.480652
v -0.135267 -0.730756 -0.480652
v -0.33295 -0.730756 -0.385453
v -0.469751 -0.730756 -0.21391
v -0.518575 -0.730756 -1.2E-07
v -0.469751 -0.730756 0.21391
v -0.33295 -0.730756 0.385453
v -0.135268 -0.730756 0.480652
v 0.0841441 -0.730756 0.480652
v 0.281827 -0.730756 0.385453
v 0.418628 -0.730756 0.213911
v 0.467452 -0.730756 0
v 0.374408 -0.598148 -0.192615
v 0.251226 -0.598148 -0.347081
v -0.0255617 -0.598149 0
v 0.0732227 -0.598148 -0.432802
v -0.124346 -0.598148 -0.432803
v -0.302349 -0.598148 -0.347081
v -0.425531 -0.598148 -0.192615
v -0.469494 -0.598148 -1.2E-07
v -0.425531 -0.598148 0.192615
v -0.302349 -0.598148 0.347081
v -0.124346 -0.598148 0.432803
v 0.0732227 -0.598148 0.432803
v 0.251226 -0.598148 0.347081
v 0.374408 -0.598148 0.192615
v 0.418371 -0.598148 0
v 0.281827 -0.595874 -0.385453
v 0.418628 -0.595874 -0.21391
v 0.0841442 -0.595874 -0.480652
v -0.135267 -0.595874 -0.480652
v -0.33295 -0.595874 -0.385453
v -0.469751 -0.595874 -0.21391
v -0.518575 -0.595874 -1.2E-07
v -0.489886 -0.595874 -1.2E-07
v -0.469751 -0.595874 0.21391
v -0.33295 -0.595874 0.385453
v -0.135268 -0.595874 0.480652
v 0.084144 -0.595874 0.480652
v 0.281827 -0.595874 0.385453
v 0.418628 -0.595874 0.213911
v 0.467452 -0.595874 0
v 0.438763 -0.595874 0
v 0.304819 -0.659637 -0.414284
v 0.451852 -0.659637 -0.22991
v 0.0923498 -0.659637 -0.516604
v -0.143473 -0.659637 -0.516604
v -0.355942 -0.659637 -0.414284
v -0.502975 -0.659637 -0.22991
v -0.555451 -0.659637 -1.2E-07
v -0.502975 -0.659637 0.22991
v -0.355942 -0.659637 0.414284
v -0.143473 -0.659637 0.516603
v 0.0923497 -0.659637 0.516604
v 0.304819 -0.659637 0.414284
v 0.451852 -0.659637 0.22991
v 0.504327 -0.659637 0
v 0.330853 0.510221 -0.17164
v 0.306997 0.483062 -0.160152
v 0.204576 0.483062 -0.288583
v 0.221085 0.510221 -0.309285
v 0.0565736 0.483062 -0.359858
v 0.0624655 0.510221 -0.385672
v -0.107697 0.483062 -0.359858
v -0.113589 0.510221 -0.385672
v -0.255699 0.483062 -0.288583
v -0.272208 0.510221 -0.309285
v -0.35812 0.483062 -0.160152
v -0.381976 0.510221 -0.17164
v -0.394674 0.483062 -1.2E-07
v -0.421152 0.510221 -1.2E-07
v -0.35812 0.483062 0.160152
v -0.381976 0.510221 0.17164
v -0.255699 0.483062 0.288583
v -0.272208 0.510221 0.309285
v -0.107697 0.483062 0.359858
v -0.113589 0.510221 0.385672
v 0.0565736 0.483062 0.359858
v 0.0624655 0.510221 0.385672
v 0.204576 0.483062 0.288583
v 0.221085 0.510221 0.309285
v 0.306997 0.483062 0.160152
v 0.330853 0.510221 0.17164
v 0.343551 0.483062 0
v 0.370029 0.510221 0
v 0.311843 0.540846 -0.162485
v 0.207929 0.540846 -0.292788
v 0.0577704 0.540846 -0.365101
v -0.108894 0.540846 -0.365101
v -0.259053 0.540846 -0.292789
v -0.362966 0.540846 -0.162485
v -0.400052 0.540846 -1.2E-07
v -0.362966 0.540846 0.162485
v -0.259053 0.540846 0.292789
v -0.108894 0.540846 0.365101
v 0.0577704 0.540846 0.365101
v 0.207929 0.540846 0.292789
v 0.311843 0.540846 0.162485
v 0.289814 0.540846 -0.151877
v 0.192685 0.540846 -0.273672
v 0.0523296 0.540846 -0.341264
v -0.103453 0.540846 -0.341264
v -0.243808 0.540846 -0.273672
v -0.340937 0.540846 -0.151877
v -0.375602 0.540846 -1.2E-07
v -0.340937 0.540846 0.151877
v -0.243808 0.540846 0.273672
v -0.103453 0.540846 0.341264
v 0.0523296 0.540846 0.341264
v 0.192685 0.540846 0.273672
v 0.289814 0.540846 0.151877
v 0.348929 0.540846 0
v 0.324479 0.540846 0
v 0.320457 0.313769 -0.166634
v 0.213891 0.313769 -0.300264
v 0.213891 0.313769 0.300264
v 0.320457 0.313769 0.166634
v 0.0598979 0.313769 0.374423
v -0.111021 0.313769 0.374423
v -0.265014 0.313769 0.300264
v -0.37158 0.313769 0.166634
v -0.409613 0.313769 -1.2E-07
v -0.37158 0.313769 -0.166634
v -0.265014 0.313769 -0.300264
v -0.111021 0.313769 -0.374423
v 0.059898 0.313769 -0.374423
v 0.233724 -0.0467025 -0.325134
v 0.0669765 -0.0467025 -0.405435
v 0.349117 -0.0467025 -0.180436
v 0.233724 -0.0467025 0.325134
v 0.349117 -0.0467025 0.180436
v 0.0669763 -0.0467025 0.405436
v -0.1181 -0.0467025 0.405435
v -0.284847 -0.0467025 0.325134
v -0.40024 -0.0467025 0.180436
v -0.441424 -0.0467025 -1.2E-07
v -0.40024 -0.0467025 -0.180436
v -0.284847 -0.0467025 -0.325134
v -0.1181 -0.0467025 -0.405436
v 0.348982 0.292005 -0.0842425
v 0.357712 0.233438 -0.0604125
v 0.354755 0.37673 0
v 0.351869 0.352567 -0.0590418
v 0.348982 0.292005 0.0842426
v 0.351868 0.352567 0.0590418
v 0.357712 0.233438 0.0604125
v 0.390301 -0.0467025 0
v 0.366443 0.208267 0
v 0.414672 -0.311847 0
v 0.413184 -0.336503 -0.0594412
v 0.411696 -0.395633 0.0821371
v 0.413184 -0.336503 0.0594413
v 0.419242 -0.45686 0.0599817
v 0.426788 -0.481546 0
v 0.411696 -0.395633 -0.0821369
v 0.419242 -0.45686 -0.0599816
v -0.451039 -0.142312 -1.2E-07
v -0.450214 -0.198863 0.136104
v -0.452993 -0.334268 -0.188071
v -0.450213 -0.198863 -0.136104
v -0.476657 -0.473527 -0.137341
v -0.496498 -0.529202 -1.2E-07
v -0.452993 -0.334268 0.188071
v -0.476657 -0.473527 0.137341
v 0.430482 -0.393687 -0.0956708
v 0.431956 -0.325665 -0.0691286
v 0.43361 -0.297062 0
v 0.431956 -0.325665 0.0691288
v 0.430482 -0.393687 0.0956709
v 0.447346 -0.49218 0
v 0.439004 -0.463719 -0.0699584
v 0.439004 -0.463719 0.0699586
v 0.383741 0.205572 0
v 0.374834 0.232243 -0.0650265
v 0.365781 0.293977 -0.0903821
v 0.368593 0.357816 -0.0634727
v 0.371551 0.383705 0
v 0.368593 0.357816 0.0634727
v 0.365781 0.293977 0.0903821
v 0.374834 0.232243 0.0650265
v 0.694103 -0.254279 -0.0503153
v 0.457757 -0.391687 -0.0689119
v 0.458541 -0.3436 -0.0496793
v 0.681198 -0.221622 -0.0362728
v 0.459646 -0.323121 0
v 0.676222 -0.207498 -1E-08
v 0.681198 -0.221622 0.0362729
v 0.458541 -0.3436 0.0496794
v 0.457757 -0.391687 0.068912
v 0.694103 -0.254279 0.0503154
v 0.72113 -0.297819 -1E-08
v 0.469138 -0.460943 0
v 0.463608 -0.440756 -0.0504914
v 0.711759 -0.285745 -0.0368657
v 0.711759 -0.285745 0.036866
v 0.463608 -0.440756 0.0504917
v 0.858475 0.0227006 -0.0343915
v 0.889279 0.0100715 -0.0477057
v 0.845549 0.0285763 -6E-08
v 0.889279 0.0100715 0.0477057
v 0.858475 0.0227006 0.0343915
v 0.922391 0.00147298 -0.0349538
v 0.936801 -5.148E-05 -6E-08
v 0.922391 0.00147298 0.0349538
v 0.95081 0.250436 -0.0506148
v 0.915761 0.246046 -0.0364887
v 0.900753 0.244737 -6E-08
v 0.915761 0.246046 0.0364887
v 0.95081 0.250436 0.0506149
v 1 0.265858 -6E-08
v 0.98589 0.259753 -0.0370853
v 0.98589 0.259753 0.0370854
v 0.886453 0.458384 -0.0683501
v 0.857997 0.420102 -0.0492742
v 0.845256 0.404244 -6E-08
v 0.857997 0.420102 0.0492742
v 0.886453 0.458384 0.0683502
v 0.917361 0.520762 -6E-08
v 0.910134 0.501299 -0.0500799
v 0.910134 0.501299 0.05008
v 0.580848 0.462015 -0.0853358
v 0.611717 0.419389 -0.0615194
v 0.625134 0.400861 0
v 0.611717 0.419389 0.0615195
v 0.580848 0.462015 0.0853359
v 0.540771 0.517357 0
v 0.551678 0.502296 -0.0625251
v 0.551678 0.502296 0.0625254
v 0.523866 0.323535 -0.0459914
v 0.502018 0.356257 -0.0637964
v 0.533363 0.309312 0
v 0.502018 0.356257 0.0637966
v 0.523866 0.323535 0.0459915
v 0.481372 0.387178 -0.0467433
v 0.473652 0.39874 0
v 0.481372 0.387178 0.0467436
v 0.391103 0.296829 -0.0710831
v 0.39783 0.249658 -0.0514066
v 0.40426 0.2291 0
v 0.39783 0.249658 0.0514066
v 0.391103 0.296829 0.0710832
v 0.39511 0.365932 0
v 0.392958 0.345613 -0.05008
v 0.392958 0.345613 0.0500802
v -0.476063 -0.334268 0.188071
v -0.473284 -0.198863 0.136104
v -0.474109 -0.142312 -1.2E-07
v -0.473283 -0.198863 -0.136104
v -0.476063 -0.334268 -0.188071
v -0.499727 -0.473527 -0.137341
v -0.519569 -0.529202 -1.2E-07
v -0.499727 -0.473527 0.137341
v -0.59486 -0.281843 0.171383
v -0.531065 -0.176223 0.124027
v -0.504439 -0.132101 -1.2E-07
v -0.531065 -0.176223 -0.124028
v -0.59486 -0.281843 -0.171384
v -0.66065 -0.39036 -0.125155
v -0.687042 -0.43369 -1.2E-07
v -0.66065 -0.39036 0.125155
v -0.697179 -0.146358 0.142712
v -0.606885 -0.0973244 0.103279
v -0.569183 -0.0768313 -1.2E-07
v -0.606885 -0.0973244 -0.103279
v -0.697179 -0.146358 -0.142713
v -0.790127 -0.196632 -0.104218
v -0.827329 -0.216655 -1.2E-07
v -0.790127 -0.196632 0.104218
v -0.747217 0.0537297 0.0921066
v -0.688941 0.0853759 0.0666559
v -0.664608 0.0986025 -1.2E-07
v -0.688941 0.0853759 -0.0666563
v -0.747217 0.0537297 -0.0921069
v -0.807205 0.0212828 -0.0672621
v -0.831215 0.00836025 -1.2E-07
v -0.807205 0.0212828 0.0672619
v -0.750605 0.301942 0.067542
v -0.707872 0.325148 0.0488789
v -0.690028 0.334847 -1.2E-07
v -0.707872 0.325148 -0.0488792
v -0.750605 0.301942 -0.0675422
v -0.794595 0.278149 -0.0493236
v -0.812201 0.268672 -1.2E-07
v -0.794595 0.278149 0.0493232
v -0.800354 0.455298 0.067542
v -0.769807 0.493134 0.0488789
v -0.757056 0.508941 -1.2E-07
v -0.769807 0.493134 -0.0488792
v -0.800354 0.455298 -0.0675422
v -0.831835 0.416437 -0.0493236
v -0.844453 0.400927 -1.2E-07
v -0.831835 0.416437 0.0493232
v -0.901358 0.557783 0.067542
v -0.852732 0.557783 0.0488789
v -0.832423 0.557783 -1.2E-07
v -0.852732 0.557783 -0.0488792
v -0.901358 0.557783 -0.0675422
v -0.946565 0.557783 -0.0417271
v -1 0.557783 -1.2E-07
v -0.946565 0.557783 0.0417267
v -0.903912 0.557783 0.0559283
v -0.863647 0.557783 0.0404743
v -0.84683 0.557783 -1.2E-07
v -0.863647 0.557783 -0.0404747
v -0.903912 0.557783 -0.0559287
v -0.940519 0.557783 -0.0345523
v -0.985593 0.557783 -1.2E-07
v -0.940519 0.557783 0.034552
v 0.313457 0.515106 -0.115446
v 0.313457 0.543255 -0.115446
v 0.403076 0.543255 -0.115446
v 0.403076 0.515106 -0.115446
v 0.313457 0.515106 0.115446
v 0.403076 0.515106 0.115446
v 0.313457 0.543255 0.115446
v 0.403076 0.543255 0.115446
v 0.426981 0.515106 -0.115446
v 0.426981 0.543255 -0.115446
v 0.426981 0.543255 0.115446
v 0.426981 0.515106 0.115446
v 0.415241 0.515106 0.115446
v 0.415241 0.515106 -0.115446
v 0.415241 0.531195 0.115446
v 0.415241 0.531195 -0.115446
v 0.0182891 0.724175 0.0179251
v 0.0228508 0.724175 -0.00305246
v -0.0250169 0.730756 -0.00290058
v 0.018069 0.724175 -0.0238967
v 0.00471667 0.724175 -0.040602
v -0.0145614 0.724175 -0.0498596
v -0.0359471 0.724175 -0.0498358
v -0.0552047 0.724175 -0.0405358
v -0.0683229 0.724175 -0.0237263
v 0.317945 0.571856 0.162027
v 0.317945 0.534687 0.162027
v 0.355355 0.534687 -0.00342039
v 0.355355 0.571856 -0.00342039
v 0.317485 0.534687 -0.168496
v 0.317485 0.571856 -0.168496
v 0.211742 0.534687 -0.300793
v 0.211742 0.571856 -0.300793
v 0.0590689 0.534687 -0.374109
v 0.059069 0.571856 -0.374109
v -0.110295 0.534687 -0.373921
v -0.110295 0.571856 -0.373921
v -0.262805 0.534687 -0.300268
v -0.262805 0.571856 -0.300268
v -0.367978 0.534687 -0.167828
v -0.367978 0.571856 -0.167828
v 0.0459108 0.590655 0.031208
v 0.0535003 0.590655 -0.00308639
v 0.0456686 0.590655 -0.0372256
v 0.0237998 0.590655 -0.064586
v -0.0077743 0.590655 -0.0797482
v -0.0428003 0.590655 -0.0797095
v -0.0743409 0.590655 -0.0644774
v -0.0959447 0.590655 -0.0370092
v 0.039564 0.596663 0.0281559
v 0.0464575 0.596663 -0.00307859
v 0.0393267 0.596663 -0.0341629
v 0.0194149 0.596663 -0.0590749
v -0.00933385 0.596663 -0.0728804
v -0.0412256 0.596663 -0.0728451
v -0.0699437 0.596663 -0.058976
v -0.0895977 0.596663 -0.033957
v -0.00159074 0.596663 0.00836484
v 0.0007916 0.596663 -0.00302804
v -0.00179504 0.596663 -0.0143036
v -0.00901794 0.596663 -0.0233402
v -0.0194462 0.596663 -0.028348
v -0.0310147 0.596663 -0.0283352
v -0.0414319 0.596663 -0.0233043
v -0.048443 0.596663 -0.014166
v -0.00159074 0.621027 0.00836484
v 0.0007916 0.621027 -0.00302804
v -0.00179504 0.621027 -0.0143036
v -0.00901794 0.621027 -0.0233402
v -0.0194462 0.621027 -0.028348
v -0.0310147 0.621027 -0.0283352
v -0.0414319 0.621027 -0.0233043
v -0.048443 0.621027 -0.014166
v 0.010711 0.624942 0.0142807
v 0.0144418 0.624942 -0.00304315
v 0.0104969 0.624942 -0.0202398
v -0.00051894 0.624942 -0.0340218
v -0.0164235 0.624942 -0.0416594
v -0.0340669 0.624942 -0.0416398
v -0.0499545 0.624942 -0.0339671
v -0.0607447 0.624942 -0.0200818
v -0.00848268 0.669422 0.00505063
v 0.0124084 0.632238 0.0150969
v 0.0163253 0.632238 -0.00304524
v -0.00685578 0.669422 -0.00301958
v 0.0121929 0.632238 -0.0210589
v -0.00868149 0.669422 -0.0109779
v 0.00065372 0.632238 -0.0354957
v -0.0137794 0.669422 -0.0173559
v -0.0160064 0.632238 -0.0434961
v -0.0211397 0.669422 -0.0208904
v -0.034488 0.632238 -0.0434756
v -0.0293048 0.669422 -0.0208814
v -0.0511304 0.632238 -0.0354383
v -0.0366573 0.669422 -0.0173306
v -0.0624422 0.632238 -0.0208981
v -0.0415511 0.669422 -0.0108518
v 0.0221 0.669422 0.0197577
v 0.0270794 0.669422 -0.00305714
v 0.0218768 0.669422 -0.0257356
v 0.00734954 0.669422 -0.043911
v -0.013625 0.669422 -0.0539834
v -0.0368926 0.669422 -0.0539574
v -0.0578449 0.669422 -0.043839
v -0.0721338 0.669422 -0.0255589
v 0.029638 0.687112 0.0233827
v 0.0354437 0.687112 -0.0030664
v 0.0294089 0.687112 -0.0293731
v 0.0125574 0.687112 -0.0504563
v -0.0117728 0.687112 -0.06214
v -0.0387629 0.687112 -0.0621099
v -0.0630672 0.687112 -0.0503727
v -0.0796719 0.687112 -0.0291839
v 0.029638 0.708472 0.0233827
v 0.0354437 0.708472 -0.0030664
v 0.0294089 0.708472 -0.0293731
v 0.0125574 0.708472 -0.0504563
v -0.0117728 0.708472 -0.06214
v -0.0387629 0.708472 -0.0621099
v -0.0630672 0.708472 -0.0503727
v -0.0796719 0.708472 -0.0291839
v -0.0728846 0.724175 -0.00280188
v -0.0681258 0.724175 0.0180476
v -0.0547921 0.724175 0.0347677
v -0.0355242 0.724175 0.0440466
v -0.0141385 0.724175 0.0440465
v 0.00512935 0.724175 0.0347678
v -0.405389 0.534687 -0.002802
v -0.405389 0.571856 -0.002802
v -0.367702 0.534687 0.162316
v -0.367702 0.571856 0.162316
v -0.262105 0.534687 0.29473
v -0.262105 0.571856 0.29473
v -0.109513 0.534687 0.368214
v -0.109513 0.571856 0.368214
v 0.0598506 0.534687 0.368214
v 0.0598506 0.571856 0.368214
v 0.212442 0.534687 0.29473
v 0.212442 0.571856 0.29473
v -0.103534 0.590655 -0.00280188
v -0.0957403 0.590655 0.031346
v -0.0739017 0.590655 0.0587306
v -0.0423444 0.590655 0.0739277
v -0.00731831 0.590655 0.0739277
v 0.024239 0.590655 0.0587306
v -0.0964914 0.596663 -0.00280188
v -0.0893949 0.596663 0.0282903
v -0.0695107 0.596663 0.0532244
v -0.0407773 0.596663 0.0670616
v -0.00888544 0.596663 0.0670616
v 0.019848 0.596663 0.0532244
v -0.0508253 0.596663 -0.00280188
v -0.0482512 0.596663 0.00847649
v -0.0410383 0.596663 0.0175211
v -0.0306156 0.596663 0.0225404
v -0.0190471 0.596663 0.0225404
v -0.00862429 0.596663 0.0175211
v -0.0508253 0.621027 -0.00280188
v -0.0482512 0.621027 0.00847649
v -0.0410383 0.621027 0.0175211
v -0.0306156 0.621027 0.0225404
v -0.0190471 0.621027 0.0225404
v -0.00862429 0.621027 0.0175211
v -0.0644756 0.624942 -0.00280188
v -0.0605497 0.624942 0.0143991
v -0.0495491 0.624942 0.0281933
v -0.033653 0.624942 0.0358485
v -0.0160097 0.624942 0.0358485
v -0.0001135 0.624942 0.0281933
v -0.0663591 0.632238 -0.00280188
v -0.043178 0.669422 -0.00280188
v -0.0622466 0.632238 0.0152163
v -0.0413611 0.669422 0.00515847
v -0.0507234 0.632238 0.0296659
v -0.0362703 0.669422 0.0115421
v -0.0340721 0.632238 0.0376847
v -0.0289138 0.669422 0.0150848
v -0.0155905 0.632238 0.0376847
v -0.0207488 0.669422 0.0150848
v 0.0010608 0.632238 0.0296659
v -0.0133924 0.669422 0.0115421
v -0.0771132 0.669422 -0.00280188
v -0.0719358 0.669422 0.0198824
v -0.0574286 0.669422 0.0380738
v -0.0364652 0.669422 0.0481694
v -0.0131975 0.669422 0.0481691
v 0.00776584 0.669422 0.0380739
v -0.0854776 0.687112 -0.00280188
v -0.0794718 0.687112 0.0235115
v -0.0626436 0.687112 0.0446133
v -0.0383264 0.687112 0.056324
v -0.0113363 0.687112 0.0563237
v 0.0129809 0.687112 0.0446134
v -0.0854776 0.708472 -0.00280188
v -0.0794718 0.708472 0.0235115
v -0.0626436 0.708472 0.0446133
v -0.0383264 0.708472 0.056324
v -0.0113363 0.708472 0.0563237
v 0.0129809 0.708472 0.0446134
v 0.313586 0.571183 0.115362
v 0.313586 0.543033 0.115362
v 0.403205 0.543033 0.115362
v 0.403205 0.571183 0.115362
v 0.313586 0.571183 -0.115529
v 0.403205 0.571183 -0.115529
v 0.313586 0.543033 -0.115529
v 0.403205 0.543033 -0.115529
v 0.427111 0.571183 0.115362
v 0.427111 0.543033 0.115362
v 0.427111 0.543033 -0.115529
v 0.427111 0.571183 -0.115529
v 0.41537 0.571183 -0.115529
v 0.41537 0.571183 0.115362
v 0.41537 0.555094 -0.115529
v 0.41537 0.555094 0.115362
vn 0.84284 0.08535 -0.53136
vn 0.81442 0.32281 -0.4822
vn 0.60029 0.27027 -0.75274
vn 0.62108 0.08791 -0.7788
vn 0.21424 0.27027 -0.93864
vn 0.22166 0.08791 -0.97115
vn -0.21424 0.27027 -0.93864
vn -0.22166 0.08791 -0.97115
vn -0.60029 0.27027 -0.75274
vn -0.62108 0.08791 -0.7788
vn -0.80525 0.28883 -0.51784
vn -0.77623 0.07565 -0.6259
vn -0.77623 0.07565 0.6259
vn -0.80525 0.28883 0.51784
vn -0.60029 0.27027 0.75274
vn -0.62108 0.0879 0.7788
vn -0.21424 0.27027 0.93864
vn -0.22166 0.0879 0.97115
vn 0.21424 0.27027 0.93864
vn 0.22166 0.0879 0.97115
vn 0.60029 0.27027 0.75274
vn 0.62108 0.08791 0.7788
vn 0.81442 0.32281 0.4822
vn 0.84284 0.08535 0.53136
vn 0.18562 -0.95466 -0.23276
vn 0.26822 -0.95466 -0.12917
vn -0 -1 0
vn 0.06625 -0.95466 -0.29024
vn -0.06625 -0.95466 -0.29024
vn -0.18562 -0.95466 -0.23276
vn -0.26822 -0.95466 -0.12917
vn -0.2977 -0.95466 -0
vn -0.26822 -0.95466 0.12917
vn -0.18562 -0.95466 0.23276
vn -0.06625 -0.95466 0.29024
vn 0.06625 -0.95466 0.29024
vn 0.18562 -0.95466 0.23276
vn 0.26822 -0.95466 0.12917
vn 0.2977 -0.95466 -0
vn -0.8959 0.10596 0.43144
vn -0.61998 0.10596 0.77743
vn 0 1 0
vn -0.22127 0.10596 0.96944
vn 0.22127 0.10596 0.96944
vn 0.61998 0.10596 0.77743
vn 0.8959 0.10596 0.43144
vn 0.99437 0.10596 0
vn 0.8959 0.10596 -0.43144
vn 0.61998 0.10596 -0.77743
vn 0.22127 0.10596 -0.96944
vn -0.22127 0.10596 -0.96944
vn -0.61998 0.10596 -0.77743
vn -0.8959 0.10596 -0.43144
vn -0.99437 0.10596 -0
vn 0.45992 0.67518 -0.57672
vn 0.6646 0.67518 -0.32005
vn 0.16414 0.67518 -0.71916
vn -0.16414 0.67518 -0.71916
vn -0.45992 0.67518 -0.57672
vn -0.6646 0.67518 -0.32005
vn -0.73765 0.67518 -0
vn -0.96724 0.25387 -0
vn -0.6646 0.67518 0.32005
vn -0.45992 0.67518 0.57672
vn -0.16414 0.67518 0.71916
vn 0.16414 0.67518 0.71916
vn 0.45992 0.67518 0.57672
vn 0.6646 0.67518 0.32005
vn 0.73765 0.67518 0
vn 0.91166 0.41096 -0
vn 0.62349 -0.00169 -0.78183
vn 0.90097 -0.00169 -0.43388
vn 0.22252 -0.00169 -0.97493
vn -0.22252 -0.00169 -0.97493
vn -0.62349 -0.00169 -0.78183
vn -0.90097 -0.00169 -0.43388
vn -1 -0.00169 -0
vn -0.90097 -0.00169 0.43388
vn -0.62349 -0.00169 0.78183
vn -0.22252 -0.00169 0.97493
vn 0.22252 -0.00169 0.97493
vn 0.62349 -0.00169 0.78183
vn 0.90097 -0.00169 0.43388
vn 1 -0.00169 0
vn 0.83435 -0.2874 -0.47038
vn 0.86235 -0.10768 -0.49473
vn 0.6219 -0.07134 -0.77984
vn 0.62142 -0.08139 -0.77924
vn 0.22195 -0.07134 -0.97244
vn 0.22178 -0.08139 -0.97169
vn -0.22195 -0.07134 -0.97244
vn -0.22178 -0.08139 -0.97169
vn -0.6219 -0.07134 -0.77984
vn -0.62142 -0.08139 -0.77924
vn -0.89867 -0.07134 -0.43278
vn -0.89798 -0.08139 -0.43244
vn -0.99745 -0.07134 -0
vn -0.99668 -0.08139 -0
vn -0.89867 -0.07134 0.43278
vn -0.89798 -0.08139 0.43244
vn -0.6219 -0.07134 0.77984
vn -0.62142 -0.08139 0.77924
vn -0.22195 -0.07134 0.97244
vn -0.22178 -0.08139 0.97169
vn 0.22195 -0.07134 0.97244
vn 0.22178 -0.08139 0.97169
vn 0.6219 -0.07134 0.77984
vn 0.62142 -0.08139 0.77924
vn 0.86235 -0.10768 0.49473
vn 0.83435 -0.2874 0.47038
vn 0.98962 -0.14372 0
vn 0.8803 -0.47441 0
vn 0.42152 0.85858 -0.29181
vn 0.38296 0.78914 -0.48022
vn 0.13668 0.78914 -0.59882
vn -0.13668 0.78914 -0.59882
vn -0.38296 0.78914 -0.48021
vn -0.55339 0.78914 -0.2665
vn -0.61422 0.78914 -0
vn -0.55339 0.78914 0.2665
vn -0.38296 0.78914 0.48022
vn -0.13668 0.78914 0.59882
vn 0.13668 0.78914 0.59882
vn 0.38296 0.78914 0.48021
vn 0.42152 0.85858 0.29181
vn -0.89934 -0.0602 0.4331
vn -0.62236 -0.0602 0.78041
vn -0.22212 -0.0602 0.97316
vn 0.22212 -0.0602 0.97316
vn 0.62236 -0.0602 0.78041
vn 0.89934 -0.0602 0.4331
vn 0.99819 -0.0602 0
vn 0.89934 -0.0602 -0.4331
vn 0.62236 -0.0602 -0.78041
vn 0.22212 -0.0602 -0.97316
vn -0.22212 -0.0602 -0.97316
vn -0.62236 -0.0602 -0.78041
vn -0.89934 -0.0602 -0.4331
vn 0.36364 0.93154 0
vn -0.99819 -0.0602 -0
vn 0.83679 0.08589 -0.54075
vn 0.62108 0.0879 -0.7788
vn 0.62108 0.0879 0.7788
vn 0.83679 0.08589 0.54075
vn 0.22166 0.0879 0.97115
vn -0.22166 0.0879 0.97115
vn -0.62108 0.0879 0.7788
vn -0.89748 0.0879 0.4322
vn -0.99613 0.0879 -0
vn -0.89748 0.0879 -0.4322
vn -0.62108 0.0879 -0.7788
vn -0.22166 0.0879 -0.97115
vn 0.22166 0.0879 -0.97115
vn 0.62108 0.0879 -0.7788
vn 0.86089 0.08963 -0.50084
vn 0.62108 0.0879 0.7788
vn 0.86089 0.08963 0.50084
vn -0.8694 0.09775 0.48434
vn -0.99304 0.11779 -0
vn -0.8694 0.09775 -0.48434
vn -0.22166 0.0879 -0.97115
vn 0.93981 0.08008 -0.33219
vn 0.96439 0.05116 -0.25947
vn 0.97502 0.2221 0
vn 0.93894 0.16771 -0.30044
vn 0.9398 0.08008 0.33219
vn 0.93894 0.16771 0.30044
vn 0.96439 0.05116 0.25948
vn 0.9954 0.09581 0
vn 0.99904 0.0437 0
vn 0.98814 0.15358 0
vn 0.95264 0.12686 -0.27636
vn 0.93713 0.08114 0.33943
vn 0.95264 0.12686 0.27636
vn 0.95857 0.01221 0.28461
vn 0.99982 -0.01918 -0
vn 0.93713 0.08114 -0.33943
vn 0.95857 0.01221 -0.28461
vn -0.94828 0.31742 -0
vn -0.79144 0.27866 0.54403
vn -0.56312 0.104 -0.81981
vn -0.79144 0.27866 -0.54403
vn -0.84053 -0.18774 -0.5082
vn -0.95788 -0.28716 -0
vn -0.56312 0.104 0.8198
vn -0.84053 -0.18774 0.50819
vn 0.20688 0.01793 -0.9782
vn 0.20459 0.68644 -0.69781
vn 0.20863 0.978 -0
vn 0.20459 0.68644 0.69781
vn 0.20688 0.01793 0.9782
vn 0.407 -0.91343 -0
vn 0.31149 -0.63586 -0.70616
vn 0.31149 -0.63586 0.70615
vn 0.44826 -0.8939 0
vn 0.35571 -0.62938 -0.69091
vn 0.23381 0.02358 -0.972
vn 0.22249 0.68314 -0.69557
vn 0.23387 0.97227 -0
vn 0.22248 0.68314 0.69557
vn 0.23381 0.02358 0.972
vn 0.35571 -0.62938 0.69091
vn 0.09105 -0.02464 -0.99554
vn 0.28311 -0.05908 -0.95727
vn -0.06341 0.63343 -0.7712
vn -0.44071 0.53589 -0.72014
vn -0.25354 0.96733 -0
vn -0.66672 0.74531 -0
vn -0.44071 0.53589 0.72014
vn -0.06341 0.63343 0.7712
vn 0.2831 -0.05908 0.95727
vn 0.09105 -0.02464 0.99554
vn 0.68607 -0.72754 0
vn 0.61974 -0.7848 0
vn 0.53063 -0.58186 -0.61634
vn 0.5274 -0.54259 -0.6538
vn 0.5274 -0.54259 0.6538
vn 0.53063 -0.58186 0.61634
vn -0.63193 0.29601 -0.71627
vn 0.04045 -0.041 -0.99834
vn -0.90364 0.42829 -0
vn 0.04045 -0.041 0.99834
vn -0.63193 0.29601 0.71627
vn 0.67363 -0.34677 -0.65267
vn 0.90186 -0.43202 0
vn 0.67363 -0.34677 0.65267
vn 0.10097 -0.03934 -0.99411
vn -0.66944 -0.04498 -0.7415
vn -0.99945 -0.03319 -0
vn -0.66944 -0.04498 0.7415
vn 0.10097 -0.03934 0.99411
vn 0.99696 0.07794 0
vn 0.78661 0.02168 -0.61706
vn 0.78662 0.02168 0.61706
vn 0.12162 0.12163 -0.9851
vn -0.22052 -0.58712 -0.77888
vn -0.40016 -0.91645 0
vn -0.22052 -0.58712 0.77888
vn 0.12162 0.12163 0.9851
vn 0.37768 0.92594 0
vn 0.35279 0.7298 -0.5856
vn 0.35279 0.7298 0.5856
vn -0.02482 0.13727 -0.99022
vn 0.17961 -0.67245 -0.71801
vn 0.26154 -0.96519 0
vn 0.17961 -0.67246 0.71801
vn -0.02482 0.13727 0.99022
vn -0.26251 0.96493 0
vn -0.21107 0.79803 -0.56445
vn -0.21107 0.79803 0.56445
vn 0.47169 -0.61913 -0.62784
vn 0.00854 -0.10339 -0.9946
vn 0.6153 -0.78829 -0
vn 0.00854 -0.10339 0.9946
vn 0.4717 -0.61913 0.62784
vn -0.56155 0.49474 -0.66324
vn -0.73509 0.67797 0
vn -0.56155 0.49474 0.66324
vn 0.281 -0.07407 -0.95684
vn 0.49681 -0.61977 -0.60751
vn 0.57848 -0.8157 -0
vn 0.49681 -0.61977 0.60751
vn 0.281 -0.07407 0.95684
vn -0.13946 0.99023 0
vn -0.01159 0.66364 -0.74797
vn -0.01159 0.66364 0.74797
vn -0.14419 -0.08744 0.98568
vn 0.06192 0.57656 0.81471
vn 0.20608 0.97854 -0
vn 0.06192 0.57656 -0.81471
vn -0.14418 -0.08743 -0.98568
vn -0.34514 -0.65876 -0.66851
vn -0.44149 -0.89727 -0
vn -0.34514 -0.65876 0.66851
vn -0.19319 -0.01884 0.98098
vn 0.24733 0.54515 0.80103
vn 0.54136 0.84079 -0
vn 0.24733 0.54515 -0.80103
vn -0.19318 -0.01884 -0.98098
vn -0.55178 -0.52017 -0.65189
vn -0.69156 -0.72232 -0
vn -0.55178 -0.52017 0.65189
vn -0.17814 0.12173 0.97645
vn 0.46832 0.46031 0.75418
vn 0.79943 0.60076 -0
vn 0.46832 0.46031 -0.75418
vn -0.17814 0.12173 -0.97645
vn -0.73193 -0.21414 -0.64686
vn -0.93694 -0.3495 0
vn -0.73193 -0.21414 0.64686
vn -0.10564 0.17552 0.97879
vn 0.63437 0.27882 0.721
vn 0.95085 0.30966 -0
vn 0.63437 0.27882 -0.721
vn -0.10564 0.17552 -0.97879
vn -0.76043 0.06762 -0.64589
vn -0.99985 0.01718 0
vn -0.76043 0.06762 0.64589
vn 0.03836 0.0655 0.99712
vn 0.73956 0.16556 0.65242
vn 0.977 0.21324 -0
vn 0.73956 0.16556 -0.65242
vn 0.03836 0.0655 -0.99712
vn -0.71688 0.00229 -0.69719
vn -0.99988 -0.01533 -0
vn -0.71688 0.00229 0.69719
vn 0.05009 0.01239 0.99867
vn 0.65007 0.40604 0.64229
vn 0.8375 0.54644 -0
vn 0.65007 0.40604 -0.64229
vn 0.05009 0.01239 -0.99867
vn -0.58627 -0.35162 -0.72983
vn -0.86578 -0.50042 0
vn -0.58627 -0.35162 0.72983
vn -0.18008 -0.08928 0.97959
vn 0.38155 0.55095 0.7422
vn 0.542 0.84038 0
vn 0.38155 0.55095 -0.7422
vn -0.18008 -0.08928 -0.97959
vn -0.59849 -0.49558 -0.62945
vn -0.76055 -0.64928 0
vn -0.59849 -0.49558 0.62945
vn 0.00804 0.99997 -0.0005
vn 0.00687 0.99998 -0.00012
vn 0.00676 0.99998 -0
vn 0.00687 0.99998 0.00012
vn 0.00804 0.99997 0.0005
vn 0.00776 0.99997 0.00159
vn 0.00677 0.99998 0
vn 0.00776 0.99997 -0.00159
vn -0.15507 -0.0017 -0.9879
vn -0.5957 -0.18612 -0.78135
vn -0.73902 -0.66811 -0.08645
vn -0.49792 -0.65333 0.5703
vn -0.17287 -0.18272 0.96785
vn 0.60223 0.42983 0.67273
vn 0.75147 0.65655 -0.0651
vn 0.5483 0.41454 -0.72631
vn 0 -0.99265 -0.12102
vn 0 0.99265 -0.12102
vn 0.11693 0.98685 -0.11161
vn 0 -0.99302 -0.11796
vn 0 -0.99265 0.12102
vn -0 -0.99302 0.11796
vn 0 0.99265 0.12102
vn 0.11693 0.98685 0.11161
vn 0.92232 -0.38468 -0.03685
vn 0.80748 0.58924 -0.02774
vn 0.80748 0.58924 0.02774
vn 0.92232 -0.38468 0.03685
vn 0 -0.99544 0.09536
vn 0 -0.99544 -0.09536
vn 0 0.9898 0.1425
vn 0 0.9898 -0.1425
vn 0.47132 0.85242 0.22633
vn 0.52285 0.85242 -0.00058
vn -0 1 -0
vn 0.47082 0.85242 -0.22738
vn 0.32554 0.85242 -0.40914
vn 0.11578 0.85243 -0.50987
vn -0.11691 0.85242 -0.50961
vn -0.32644 0.85242 -0.40842
vn -0.47132 0.85242 -0.22633
vn 0.25925 0.95775 0.1245
vn 0.90145 -0 0.43289
vn 1 -0 -0.00111
vn 0.28759 0.95775 -0.00032
vn 0.90049 -0 -0.43488
vn 0.25898 0.95775 -0.12507
vn 0.62262 0 -0.78252
vn 0.17906 0.95775 -0.22505
vn 0.22144 0 -0.97517
vn 0.06369 0.95775 -0.28046
vn -0.2236 0 -0.97468
vn -0.06431 0.95775 -0.28031
vn -0.62436 0 -0.78114
vn -0.17956 0.95775 -0.22465
vn -0.80521 0 -0.59299
vn -0.43295 0.87418 -0.21993
vn 0.06023 0.99776 0.02892
vn 0.06681 0.99776 -7E-05
vn 0.06017 0.99776 -0.02906
vn 0.0416 0.99776 -0.05228
vn 0.0148 0.99776 -0.06516
vn -0.01494 0.99776 -0.06512
vn -0.04172 0.99776 -0.05219
vn -0.06023 0.99776 -0.02892
vn 0.17713 0.98051 0.08506
vn 0.19649 0.98051 -0.00022
vn 0.17694 0.98051 -0.08545
vn 0.12234 0.98051 -0.15376
vn 0.04351 0.98051 -0.19161
vn -0.04394 0.9805 -0.19152
vn -0.12268 0.98051 -0.15349
vn -0.17712 0.98051 -0.08506
vn 0.21742 0.97048 0.10441
vn 0.2412 0.97048 -0.00027
vn 0.21719 0.97048 -0.10489
vn 0.15017 0.97048 -0.18874
vn 0.05341 0.97048 -0.23521
vn -0.05393 0.97048 -0.23509
vn -0.15059 0.97048 -0.18841
vn -0.21742 0.97048 -0.10441
vn 0.75456 -0.54713 0.36235
vn 0.83705 -0.54712 -0.00093
vn 0.75375 -0.54713 -0.36402
vn 0.52117 -0.54712 -0.65501
vn 0.18536 -0.54713 -0.81627
vn -0.18716 -0.54713 -0.81586
vn -0.52262 -0.54713 -0.65385
vn -0.75456 -0.54713 -0.36234
vn 0.60174 -0.74459 0.28896
vn 0.66753 -0.74459 -0.00074
vn 0.6011 -0.74458 -0.2903
vn 0.41562 -0.74458 -0.52236
vn 0.14782 -0.74458 -0.65095
vn -0.14926 -0.74459 -0.65062
vn -0.41677 -0.74458 -0.52143
vn -0.60174 -0.74458 -0.28896
vn 0.79946 -0.46202 0.38392
vn 0.82754 0.39654 0.3974
vn 0.91802 0.39654 -0.00102
vn 0.88687 -0.46202 -0.00098
vn 0.82666 0.39654 -0.39922
vn 0.79861 -0.46202 -0.38568
vn 0.57158 0.39654 -0.71837
vn 0.55219 -0.46202 -0.69399
vn 0.20329 0.39654 -0.89522
vn 0.19639 -0.46202 -0.86485
vn -0.20527 0.39654 -0.89477
vn -0.1983 -0.46202 -0.86442
vn -0.57317 0.39654 -0.7171
vn -0.55372 -0.46202 -0.69277
vn -0.82754 0.39654 -0.3974
vn -0.79946 -0.46203 -0.38391
vn 0.51359 -0.82183 0.24663
vn 0.56974 -0.82183 -0.00063
vn 0.51304 -0.82183 -0.24777
vn 0.35473 -0.82183 -0.44583
vn 0.12616 -0.82183 -0.55559
vn -0.12739 -0.82183 -0.55531
vn -0.35572 -0.82183 -0.44505
vn -0.51359 -0.82183 -0.24663
vn 0.88418 -0.19481 0.42459
vn 0.98084 -0.19481 -0.00109
vn 0.88324 -0.19481 -0.42655
vn 0.6107 -0.19481 -0.76753
vn 0.2172 -0.19481 -0.95649
vn -0.21931 -0.19481 -0.95601
vn -0.61239 -0.19481 -0.76618
vn -0.88418 -0.19481 -0.42459
vn 0.86324 0.28805 0.41454
vn 0.95761 0.28805 -0.00106
vn 0.86232 0.28805 -0.41644
vn 0.59623 0.28806 -0.74935
vn 0.21205 0.28806 -0.93384
vn -0.21412 0.28806 -0.93337
vn -0.59789 0.28806 -0.74803
vn -0.86324 0.28806 -0.41454
vn -0.52285 0.85242 0
vn -0.47107 0.85242 0.22685
vn -0.32599 0.85242 0.40878
vn -0.11634 0.85243 0.50974
vn 0.11634 0.85242 0.50974
vn 0.32599 0.85242 0.40878
vn -1 -0 -0
vn -0.28759 0.95775 -0
vn -0.90097 -0 0.43388
vn -0.25911 0.95775 0.12478
vn -0.62349 0 0.78183
vn -0.17931 0.95775 0.22485
vn -0.22252 0 0.97493
vn -0.064 0.95775 0.28038
vn 0.22252 0 0.97493
vn 0.064 0.95775 0.28038
vn 0.62349 0 0.78183
vn 0.17931 0.95775 0.22485
vn -0.06681 0.99776 -0
vn -0.0602 0.99776 0.02899
vn -0.04166 0.99776 0.05224
vn -0.01487 0.99776 0.06514
vn 0.01487 0.99776 0.06514
vn 0.04166 0.99776 0.05224
vn -0.19649 0.98051 -0
vn -0.17703 0.98051 0.08525
vn -0.12251 0.98051 0.15362
vn -0.04372 0.98051 0.19156
vn 0.04372 0.9805 0.19156
vn 0.12251 0.98051 0.15362
vn -0.2412 0.97048 -0
vn -0.21731 0.97048 0.10465
vn -0.15038 0.97048 0.18857
vn -0.05367 0.97048 0.23515
vn 0.05367 0.97048 0.23515
vn 0.15038 0.97048 0.18857
vn -0.83705 -0.54712 0
vn -0.75416 -0.54713 0.36318
vn -0.52189 -0.54712 0.65443
vn -0.18626 -0.54713 0.81606
vn 0.18626 -0.54713 0.81606
vn 0.52189 -0.54713 0.65443
vn -0.66753 -0.74459 0
vn -0.60142 -0.74458 0.28963
vn -0.4162 -0.74458 0.5219
vn -0.14854 -0.74458 0.65079
vn 0.14854 -0.74459 0.65079
vn 0.4162 -0.74458 0.52189
vn -0.91802 0.39654 -0
vn -0.88687 -0.46202 0
vn -0.8271 0.39654 0.39831
vn -0.79904 -0.46202 0.3848
vn -0.57238 0.39654 0.71773
vn -0.55295 -0.46202 0.69338
vn -0.20428 0.39654 0.895
vn -0.19735 -0.46202 0.86463
vn 0.20428 0.39654 0.895
vn 0.19735 -0.46202 0.86464
vn 0.57237 0.39654 0.71774
vn 0.55295 -0.46202 0.69338
vn -0.56974 -0.82183 0
vn -0.51332 -0.82183 0.2472
vn -0.35522 -0.82183 0.44544
vn -0.12678 -0.82183 0.55545
vn 0.12678 -0.82183 0.55545
vn 0.35522 -0.82183 0.44544
vn -0.98084 -0.19481 0
vn -0.88371 -0.19481 0.42557
vn -0.61154 -0.19481 0.76685
vn -0.21826 -0.19481 0.95625
vn 0.21826 -0.19481 0.95625
vn 0.61154 -0.19481 0.76686
vn -0.95761 0.28805 -0
vn -0.86278 0.28805 0.41549
vn -0.59706 0.28806 0.74869
vn -0.21309 0.28806 0.9336
vn 0.21309 0.28806 0.9336
vn 0.59706 0.28806 0.7487
vn 0.11693 -0.98685 0.11161
vn 0 0.99302 0.11796
vn -0 0.99302 -0.11796
vn 0.11693 -0.98685 -0.11161
vn 0.92232 0.38468 0.03685
vn 0.80748 -0.58924 0.02774
vn 0.80748 -0.58924 -0.02774
vn 0.92232 0.38468 -0.03685
vn 0 0.99544 -0.09536
vn 0 0.99544 0.09536
vn 0 -0.9898 -0.1425
vn 0 -0.9898 0.1425
usemtl mat1
f 9//9 10//10 11//11
f 11//11 12//12 9//9
f 12//12 11//11 13//13
f 13//13 14//14 12//12
f 14//14 13//13 15//15
f 15//15 16//16 14//14
f 16//16 15//15 17//17
f 17//17 18//18 16//16
f 18//18 17//17 19//19
f 19//19 20//20 18//18
f 21//21 22//22 23//23
f 23//23 24//24 21//21
f 24//24 23//23 25//25
f 25//25 26//26 24//24
f 26//26 25//25 27//27
f 27//27 28//28 26//26
f 28//28 27//27 29//29
f 29//29 30//30 28//28
f 30//30 29//29 31//31
f 31//31 32//32 30//30
f 33//33 34//34 35//35
f 36//36 33//33 35//35
f 37//37 36//36 35//35
f 38//38 37//37 35//35
f 39//39 38//38 35//35
f 40//40 39//39 35//35
f 41//41 40//40 35//35
f 42//42 41//41 35//35
f 43//43 42//42 35//35
f 44//44 43//43 35//35
f 45//45 44//44 35//35
f 46//46 45//45 35//35
f 47//47 46//46 35//35
f 34//34 47//47 35//35
f 48//48 49//49 50//50
f 49//49 51//51 50//50
f 52//52 53//53 50//50
f 53//53 54//54 50//50
f 54//54 55//55 50//50
f 55//55 56//56 50//50
f 56//56 57//57 50//50
f 57//57 58//58 50//50
f 58//58 59//59 50//50
f 59//59 60//60 50//50
f 60//60 61//61 50//50
f 61//61 62//62 50//50
f 62//62 48//48 50//50
f 63//63 11//11 10//10
f 10//10 64//64 63//63
f 65//65 13//13 11//11
f 11//11 63//63 65//65
f 66//66 15//15 13//13
f 13//13 65//65 66//66
f 67//67 17//17 15//15
f 15//15 66//66 67//67
f 68//68 19//19 17//17
f 17//17 67//67 68//68
f 69//69 70//70 19//19
f 19//19 68//68 69//69
f 71//71 22//22 70//70
f 70//70 69//69 71//71
f 72//72 23//23 22//22
f 22//22 71//71 72//72
f 73//73 25//25 23//23
f 23//23 72//72 73//73
f 74//74 27//27 25//25
f 25//25 73//73 74//74
f 75//75 29//29 27//27
f 27//27 74//74 75//75
f 76//76 31//31 29//29
f 29//29 75//75 76//76
f 77//77 78//78 31//31
f 31//31 76//76 77//77
f 64//64 10//10 78//78
f 78//78 77//77 64//64
f 79//79 63//63 64//64
f 64//64 80//80 79//79
f 81//81 65//65 63//63
f 63//63 79//79 81//81
f 82//82 66//66 65//65
f 65//65 81//81 82//82
f 83//83 67//67 66//66
f 66//66 82//82 83//83
f 84//84 68//68 67//67
f 67//67 83//83 84//84
f 85//85 69//69 68//68
f 68//68 84//84 85//85
f 86//86 71//71 69//69
f 69//69 85//85 86//86
f 87//87 72//72 71//71
f 71//71 86//86 87//87
f 88//88 73//73 72//72
f 72//72 87//87 88//88
f 89//89 74//74 73//73
f 73//73 88//88 89//89
f 90//90 75//75 74//74
f 74//74 89//89 90//90
f 91//91 76//76 75//75
f 75//75 90//90 91//91
f 92//92 77//77 76//76
f 76//76 91//91 92//92
f 80//80 64//64 77//77
f 77//77 92//92 80//80
f 33//33 79//79 80//80
f 80//80 34//34 33//33
f 36//36 81//81 79//79
f 79//79 33//33 36//36
f 37//37 82//82 81//81
f 81//81 36//36 37//37
f 38//38 83//83 82//82
f 82//82 37//37 38//38
f 39//39 84//84 83//83
f 83//83 38//38 39//39
f 40//40 85//85 84//84
f 84//84 39//39 40//40
f 41//41 86//86 85//85
f 85//85 40//40 41//41
f 42//42 87//87 86//86
f 86//86 41//41 42//42
f 43//43 88//88 87//87
f 87//87 42//42 43//43
f 44//44 89//89 88//88
f 88//88 43//43 44//44
f 45//45 90//90 89//89
f 89//89 44//44 45//45
f 46//46 91//91 90//90
f 90//90 45//45 46//46
f 47//47 92//92 91//91
f 91//91 46//46 47//47
f 34//34 80//80 92//92
f 92//92 47//47 34//34
f 93//93 94//94 95//95
f 95//95 96//96 93//93
f 96//96 95//95 97//97
f 97//97 98//98 96//96
f 98//98 97//97 99//99
f 99//99 100//100 98//98
f 100//100 99//99 101//101
f 101//101 102//102 100//100
f 102//102 101//101 103//103
f 103//103 104//104 102//102
f 104//104 103//103 105//105
f 105//105 106//106 104//104
f 106//106 105//105 107//107
f 107//107 108//108 106//106
f 108//108 107//107 109//109
f 109//109 110//110 108//108
f 110//110 109//109 111//111
f 111//111 112//112 110//110
f 112//112 111//111 113//113
f 113//113 114//114 112//112
f 114//114 113//113 115//115
f 115//115 116//116 114//114
f 116//116 115//115 117//117
f 117//117 118//118 116//116
f 118//118 117//117 119//119
f 119//119 120//120 118//118
f 120//120 119//119 94//94
f 94//94 93//93 120//120
f 121//121 93//93 96//96
f 96//96 122//122 121//121
f 122//122 96//96 98//98
f 98//98 123//123 122//122
f 123//123 98//98 100//100
f 100//100 124//124 123//123
f 124//124 100//100 102//102
f 102//102 125//125 124//124
f 125//125 102//102 104//104
f 104//104 126//126 125//125
f 126//126 104//104 106//106
f 106//106 127//127 126//126
f 127//127 106//106 108//108
f 108//108 128//128 127//127
f 128//128 108//108 110//110
f 110//110 129//129 128//128
f 129//129 110//110 112//112
f 112//112 130//130 129//129
f 130//130 112//112 114//114
f 114//114 131//131 130//130
f 131//131 114//114 116//116
f 116//116 132//132 131//131
f 132//132 116//116 118//118
f 118//118 133//133 132//132
f 134//134 121//121 122//122
f 122//122 135//135 134//134
f 135//135 122//122 123//123
f 123//123 136//136 135//135
f 136//136 123//123 124//124
f 124//124 137//137 136//136
f 137//137 124//124 125//125
f 125//125 138//138 137//137
f 138//138 125//125 126//126
f 126//126 139//139 138//138
f 139//139 126//126 127//127
f 127//127 140//140 139//139
f 140//140 127//127 128//128
f 128//128 141//141 140//140
f 141//141 128//128 129//129
f 129//129 142//142 141//141
f 142//142 129//129 130//130
f 130//130 143//143 142//142
f 143//143 130//130 131//131
f 131//131 144//144 143//143
f 144//144 131//131 132//132
f 132//132 145//145 144//144
f 145//145 132//132 133//133
f 133//133 146//146 145//145
f 146//146 133//133 147//147
f 147//147 148//148 146//146
f 148//148 147//147 121//121
f 121//121 134//134 148//148
f 48//48 134//134 135//135
f 135//135 49//49 48//48
f 49//49 135//135 136//136
f 136//136 51//51 49//49
f 51//51 136//136 137//137
f 137//137 52//52 51//51
f 52//52 137//137 138//138
f 138//138 53//53 52//52
f 53//53 138//138 139//139
f 139//139 54//54 53//53
f 54//54 139//139 140//140
f 140//140 55//55 54//54
f 55//55 140//140 141//141
f 141//141 56//56 55//55
f 56//56 141//141 142//142
f 142//142 57//57 56//56
f 57//57 142//142 143//143
f 143//143 58//58 57//57
f 58//58 143//143 144//144
f 144//144 59//59 58//58
f 59//59 144//144 145//145
f 145//145 60//60 59//59
f 60//60 145//145 146//146
f 146//146 61//61 60//60
f 61//61 146//146 148//148
f 148//148 62//62 61//61
f 62//62 148//148 134//134
f 134//134 48//48 62//62
f 94//94 149//149 150//150
f 150//150 95//95 94//94
f 115//115 151//151 152//152
f 152//152 117//117 115//115
f 113//113 153//153 151//151
f 151//151 115//115 113//113
f 111//111 154//154 153//153
f 153//153 113//113 111//111
f 109//109 155//155 154//154
f 154//154 111//111 109//109
f 107//107 156//156 155//155
f 155//155 109//109 107//107
f 105//105 157//157 156//156
f 156//156 107//107 105//105
f 103//103 158//158 157//157
f 157//157 105//105 103//103
f 101//101 159//159 158//158
f 158//158 103//103 101//101
f 99//99 160//160 159//159
f 159//159 101//101 99//99
f 97//97 161//161 160//160
f 160//160 99//99 97//97
f 95//95 150//150 161//161
f 161//161 97//97 95//95
f 150//150 162//162 163//161
f 163//161 161//161 150//150
f 149//149 164//163 162//162
f 162//162 150//150 149//149
f 151//151 165//164 166//165
f 166//165 152//152 151//151
f 153//153 167//153 165//164
f 165//164 151//151 153//153
f 154//154 168//26 167//153
f 167//153 153//153 154//154
f 155//155 169//155 168//26
f 168//26 154//154 155//155
f 156//156 170//166 169//155
f 169//155 155//155 156//156
f 157//157 171//167 170//166
f 170//166 156//156 157//157
f 158//158 172//168 171//167
f 171//167 157//157 158//158
f 159//159 173//159 172//168
f 172//168 158//158 159//159
f 160//160 174//169 173//159
f 173//159 159//159 160//160
f 161//161 163//161 174//169
f 174//169 160//160 161//161
f 162//162 12//12 14//14
f 14//14 163//161 162//162
f 164//163 9//9 12//12
f 12//12 162//162 164//163
f 165//164 30//30 32//32
f 32//32 166//165 165//164
f 167//153 28//28 30//30
f 30//30 165//164 167//153
f 168//26 26//26 28//28
f 28//28 167//153 168//26
f 169//155 24//24 26//26
f 26//26 168//26 169//155
f 170//166 21//21 24//24
f 24//24 169//155 170//166
f 173//159 18//18 20//20
f 20//20 172//168 173//159
f 174//169 16//16 18//18
f 18//18 173//159 174//169
f 163//161 14//14 16//16
f 16//16 174//169 163//161
f 175//170 176//171 164//163
f 164//163 149//149 175//170
f 119//119 177//172 178//173
f 178//173 94//94 119//119
f 117//117 152//152 179//174
f 179//174 180//175 117//117
f 181//176 166//165 182//177
f 182//177 183//178 181//176
f 182//177 184//179 185//180
f 185//180 164//163 182//177
f 166//165 32//32 186//181
f 186//181 187//182 166//165
f 188//183 31//31 78//78
f 78//78 189//184 188//183
f 190//185 191//186 10//10
f 10//10 9//9 190//185
f 171//167 192//187 193//188
f 193//188 170//166 171//167
f 172//168 20//20 194//189
f 194//189 195//190 172//168
f 196//191 19//19 70//70
f 70//70 197//192 196//191
f 198//193 199//194 22//22
f 22//22 21//21 198//193
f 149//149 94//94 178//173
f 178//173 175//170 149//149
f 119//119 117//117 180//175
f 180//175 177//172 119//119
f 152//152 166//165 181//176
f 181//176 179//174 152//152
f 183//178 182//177 164//163
f 164//163 176//171 183//178
f 182//177 166//165 187//182
f 187//182 184//179 182//177
f 9//9 164//163 185//180
f 185//180 190//185 9//9
f 32//32 31//31 188//183
f 188//183 186//181 32//32
f 189//184 78//78 10//10
f 10//10 191//186 189//184
f 171//167 172//168 195//190
f 195//190 192//187 171//167
f 21//21 170//166 193//188
f 193//188 198//193 21//21
f 20//20 19//19 196//191
f 196//191 194//189 20//20
f 197//192 70//70 22//22
f 22//22 199//194 197//192
f 200//195 190//185 185//180
f 185//180 201//196 200//195
f 201//196 185//180 184//179
f 184//179 202//197 201//196
f 203//198 187//182 186//181
f 186//181 204//199 203//198
f 205//200 189//184 191//186
f 191//186 206//201 205//200
f 202//197 184//179 187//182
f 187//182 203//198 202//197
f 207//202 188//183 189//184
f 189//184 205//200 207//202
f 204//199 186//181 188//183
f 188//183 207//202 204//199
f 206//201 191//186 190//185
f 190//185 200//195 206//201
f 208//203 183//178 176//171
f 176//171 209//204 208//203
f 210//205 175//170 178//173
f 178//173 211//206 210//205
f 211//206 178//173 177//172
f 177//172 212//207 211//206
f 213//208 180//175 179//174
f 179//174 214//209 213//208
f 212//207 177//172 180//175
f 180//175 213//208 212//207
f 215//210 181//176 183//178
f 183//178 208//203 215//210
f 214//209 179//174 181//176
f 181//176 215//210 214//209
f 209//204 176//171 175//170
f 175//170 210//205 209//204
f 216//211 217//212 218//213
f 218//213 219//214 216//211
f 219//214 218//213 220//215
f 220//215 221//216 219//214
f 222//217 223//218 224//219
f 224//219 225//220 222//217
f 226//221 227//222 228//223
f 228//223 229//224 226//221
f 221//216 220//215 223//218
f 223//218 222//217 221//216
f 230//225 231//226 227//222
f 227//222 226//221 230//225
f 225//220 224//219 231//226
f 231//226 230//225 225//220
f 229//224 228//223 217//212
f 217//212 216//211 229//224
f 219//214 232//227 233//228
f 233//228 216//211 219//214
f 221//216 234//229 232//227
f 232//227 219//214 221//216
f 222//217 225//220 235//230
f 235//230 236//231 222//217
f 229//224 237//232 238//233
f 238//233 226//221 229//224
f 222//217 236//231 234//229
f 234//229 221//216 222//217
f 226//221 238//233 239//234
f 239//234 230//225 226//221
f 230//225 239//234 235//230
f 235//230 225//220 230//225
f 216//211 233//228 237//232
f 237//232 229//224 216//211
f 240//235 233//228 232//227
f 232//227 241//236 240//235
f 241//236 232//227 234//229
f 234//229 242//237 241//236
f 243//238 236//231 235//230
f 235//230 244//239 243//238
f 245//240 238//233 237//232
f 237//232 246//241 245//240
f 242//237 234//229 236//231
f 236//231 243//238 242//237
f 247//242 239//234 238//233
f 238//233 245//240 247//242
f 244//239 235//230 239//234
f 239//234 247//242 244//239
f 246//241 237//232 233//228
f 233//228 240//235 246//241
f 248//243 240//235 241//236
f 241//236 249//244 248//243
f 249//244 241//236 242//237
f 242//237 250//245 249//244
f 251//246 243//238 244//239
f 244//239 252//247 251//246
f 253//248 245//240 246//241
f 246//241 254//249 253//248
f 250//245 242//237 243//238
f 243//238 251//246 250//245
f 255//250 247//242 245//240
f 245//240 253//248 255//250
f 252//247 244//239 247//242
f 247//242 255//250 252//247
f 254//249 246//241 240//235
f 240//235 248//243 254//249
f 256//251 248//243 249//244
f 249//244 257//252 256//251
f 257//252 249//244 250//245
f 250//245 258//253 257//252
f 259//254 251//246 252//247
f 252//247 260//255 259//254
f 261//256 253//248 254//249
f 254//249 262//257 261//256
f 258//253 250//245 251//246
f 251//246 259//254 258//253
f 263//258 255//250 253//248
f 253//248 261//256 263//258
f 260//255 252//247 255//250
f 255//250 263//258 260//255
f 262//257 254//249 248//243
f 248//243 256//251 262//257
f 256//251 257//252 264//259
f 264//259 265//260 256//251
f 257//252 258//253 266//261
f 266//261 264//259 257//252
f 259//254 260//255 267//262
f 267//262 268//263 259//254
f 261//256 262//257 269//264
f 269//264 270//265 261//256
f 258//253 259//254 268//263
f 268//263 266//261 258//253
f 263//258 261//256 270//265
f 270//265 271//266 263//258
f 260//255 263//258 271//266
f 271//266 267//262 260//255
f 262//257 256//251 265//260
f 265//260 269//264 262//257
f 272//267 265//260 264//259
f 264//259 273//268 272//267
f 273//268 264//259 266//261
f 266//261 274//269 273//268
f 275//270 268//263 267//262
f 267//262 276//271 275//270
f 277//272 270//265 269//264
f 269//264 278//273 277//272
f 274//269 266//261 268//263
f 268//263 275//270 274//269
f 279//274 271//266 270//265
f 270//265 277//272 279//274
f 276//271 267//262 271//266
f 271//266 279//274 276//271
f 278//273 269//264 265//260
f 265//260 272//267 278//273
f 279//274 213//208 214//209
f 214//209 276//271 279//274
f 277//272 212//207 213//208
f 213//208 279//274 277//272
f 278//273 211//206 212//207
f 212//207 277//272 278//273
f 272//267 210//205 211//206
f 211//206 278//273 272//267
f 273//268 209//204 210//205
f 210//205 272//267 273//268
f 274//269 208//203 209//204
f 209//204 273//268 274//269
f 275//270 215//210 208//203
f 208//203 274//269 275//270
f 276//271 214//209 215//210
f 215//210 275//270 276//271
f 220//215 202//197 203//198
f 203//198 223//218 220//215
f 218//213 201//196 202//197
f 202//197 220//215 218//213
f 217//212 200//195 201//196
f 201//196 218//213 217//212
f 228//223 206//201 200//195
f 200//195 217//212 228//223
f 227//222 205//200 206//201
f 206//201 228//223 227//222
f 231//226 207//202 205//200
f 205//200 227//222 231//226
f 224//219 204//199 207//202
f 207//202 231//226 224//219
f 223//218 203//198 204//199
f 204//199 224//219 223//218
f 280//275 198//193 193//188
f 193//188 281//276 280//275
f 282//277 192//187 195//190
f 195//190 283//278 282//277
f 284//279 194//189 196//191
f 196//191 285//280 284//279
f 286//281 197//192 199//194
f 199//194 287//282 286//281
f 281//276 193//188 192//187
f 192//187 282//277 281//276
f 283//278 195//190 194//189
f 194//189 284//279 283//278
f 285//280 196//191 197//192
f 197//192 286//281 285//280
f 287//282 199//194 198//193
f 198//193 280//275 287//282
f 288//283 280//275 281//276
f 281//276 289//284 288//283
f 290//285 282//277 283//278
f 283//278 291//286 290//285
f 292//287 284//279 285//280
f 285//280 293//288 292//287
f 294//289 286//281 287//282
f 287//282 295//290 294//289
f 289//284 281//276 282//277
f 282//277 290//285 289//284
f 291//286 283//278 284//279
f 284//279 292//287 291//286
f 293//288 285//280 286//281
f 286//281 294//289 293//288
f 295//290 287//282 280//275
f 280//275 288//283 295//290
f 296//291 288//283 289//284
f 289//284 297//292 296//291
f 298//293 290//285 291//286
f 291//286 299//294 298//293
f 300//295 292//287 293//288
f 293//288 301//296 300//295
f 302//297 294//289 295//290
f 295//290 303//298 302//297
f 297//292 289//284 290//285
f 290//285 298//293 297//292
f 299//294 291//286 292//287
f 292//287 300//295 299//294
f 301//296 293//288 294//289
f 294//289 302//297 301//296
f 303//298 295//290 288//283
f 288//283 296//291 303//298
f 304//299 296//291 297//292
f 297//292 305//300 304//299
f 306//301 298//293 299//294
f 299//294 307//302 306//301
f 308//303 300//295 301//296
f 301//296 309//304 308//303
f 310//305 302//297 303//298
f 303//298 311//306 310//305
f 305//300 297//292 298//293
f 298//293 306//301 305//300
f 307//302 299//294 300//295
f 300//295 308//303 307//302
f 309//304 301//296 302//297
f 302//297 310//305 309//304
f 311//306 303//298 296//291
f 296//291 304//299 311//306
f 312//307 304//299 305//300
f 305//300 313//308 312//307
f 314//309 306//301 307//302
f 307//302 315//310 314//309
f 316//311 308//303 309//304
f 309//304 317//312 316//311
f 318//313 310//305 311//306
f 311//306 319//314 318//313
f 313//308 305//300 306//301
f 306//301 314//309 313//308
f 315//310 307//302 308//303
f 308//303 316//311 315//310
f 317//312 309//304 310//305
f 310//305 318//313 317//312
f 319//314 311//306 304//299
f 304//299 312//307 319//314
f 320//315 312//307 313//308
f 313//308 321//316 320//315
f 322//317 314//309 315//310
f 315//310 323//318 322//317
f 324//319 316//311 317//312
f 317//312 325//320 324//319
f 326//321 318//313 319//314
f 319//314 327//322 326//321
f 321//316 313//308 314//309
f 314//309 322//317 321//316
f 323//318 315//310 316//311
f 316//311 324//319 323//318
f 325//320 317//312 318//313
f 318//313 326//321 325//320
f 327//322 319//314 312//307
f 312//307 320//315 327//322
f 328//323 320//315 321//316
f 321//316 329//324 328//323
f 330//325 322//317 323//318
f 323//318 331//326 330//325
f 332//327 324//319 325//320
f 325//320 333//328 332//327
f 334//329 326//321 327//322
f 327//322 335//330 334//329
f 329//324 321//316 322//317
f 322//317 330//325 329//324
f 331//326 323//318 324//319
f 324//319 332//327 331//326
f 333//328 325//320 326//321
f 326//321 334//329 333//328
f 335//330 327//322 320//315
f 320//315 328//323 335//330
f 336//331 328//323 329//324
f 329//324 337//332 336//331
f 338//333 330//325 331//326
f 331//326 339//334 338//333
f 340//335 332//327 333//328
f 333//328 341//336 340//335
f 342//337 334//329 335//330
f 335//330 343//338 342//337
f 337//332 329//324 330//325
f 330//325 338//333 337//332
f 339//334 331//326 332//327
f 332//327 340//335 339//334
f 341//336 333//328 334//329
f 334//329 342//337 341//336
f 343//338 335//330 328//323
f 328//323 336//331 343//338
f 336//339 336//331 337//332
f 337//332 337//340 336//339
f 338//341 338//333 339//334
f 339//334 339//342 338//341
f 340//343 340//335 341//336
f 341//336 341//344 340//343
f 342//345 342//337 343//338
f 343//338 343//346 342//345
f 337//340 337//332 338//333
f 338//333 338//341 337//340
f 339//342 339//334 340//335
f 340//335 340//343 339//342
f 341//344 341//336 342//337
f 342//337 342//345 341//344
f 343//346 343//338 336//331
f 336//331 336//339 343//346
f 52//52 50//50 51//51
f 120//120 147//147 133//133
f 133//133 118//118 120//120
f 93//93 121//121 147//147
f 147//147 120//120 93//93
f 344//347 345//348 346//349
f 346//349 347//350 344//347
f 348//351 344//347 347//350
f 347//350 349//352 348//351
f 350//353 348//351 349//352
f 349//352 351//354 350//353
f 345//348 350//353 351//354
f 351//354 346//349 345//348
f 352//355 353//356 354//357
f 354//357 355//358 352//355
f 356//359 357//360 352//355
f 352//355 355//358 356//359
f 354//357 358//361 356//359
f 356//359 355//358 354//357
f 353//356 359//362 358//361
f 358//361 354//357 353//356
f 352//355 357//360 359//362
f 359//362 353//356 352//355
f 347//350 346//349 359//362
f 359//362 357//360 347//350
f 356//359 349//352 347//350
f 347//350 357//360 356//359
f 358//361 351//354 349//352
f 349//352 356//359 358//361
f 359//362 346//349 351//354
f 351//354 358//361 359//362
f 360//363 361//364 362//365
f 361//364 363//366 362//365
f 363//366 364//367 362//365
f 364//367 365//368 362//365
f 365//368 366//369 362//365
f 366//369 367//370 362//365
f 367//370 368//371 362//365
f 369//372 370//373 371//374
f 371//374 372//375 369//372
f 372//375 371//374 373//376
f 373//376 374//377 372//375
f 374//377 373//376 375//378
f 375//378 376//379 374//377
f 376//379 375//378 377//380
f 377//380 378//381 376//379
f 378//381 377//380 379//382
f 379//382 380//383 378//381
f 380//383 379//382 381//384
f 381//384 382//385 380//383
f 382//385 381//384 383//386
f 383//386 384//387 382//385
f 385//388 369//372 372//375
f 372//375 386//389 385//388
f 386//389 372//375 374//377
f 374//377 387//390 386//389
f 387//390 374//377 376//379
f 376//379 388//391 387//390
f 388//391 376//379 378//381
f 378//381 389//392 388//391
f 389//392 378//381 380//383
f 380//383 390//393 389//392
f 390//393 380//383 382//385
f 382//385 391//394 390//393
f 391//394 382//385 384//387
f 384//387 392//395 391//394
f 393//396 385//388 386//389
f 386//389 394//397 393//396
f 394//397 386//389 387//390
f 387//390 395//398 394//397
f 395//398 387//390 388//391
f 388//391 396//399 395//398
f 396//399 388//391 389//392
f 389//392 397//400 396//399
f 397//400 389//392 390//393
f 390//393 398//401 397//400
f 398//401 390//393 391//394
f 391//394 399//402 398//401
f 399//402 391//394 392//395
f 392//395 400//403 399//402
f 401//404 393//396 394//397
f 394//397 402//405 401//404
f 402//405 394//397 395//398
f 395//398 403//406 402//405
f 403//406 395//398 396//399
f 396//399 404//407 403//406
f 404//407 396//399 397//400
f 397//400 405//408 404//407
f 405//408 397//400 398//401
f 398//401 406//409 405//408
f 406//409 398//401 399//402
f 399//402 407//410 406//409
f 407//410 399//402 400//403
f 400//403 408//411 407//410
f 409//412 401//404 402//405
f 402//405 410//413 409//412
f 410//413 402//405 403//406
f 403//406 411//414 410//413
f 411//414 403//406 404//407
f 404//407 412//415 411//414
f 412//415 404//407 405//408
f 405//408 413//416 412//415
f 413//416 405//408 406//409
f 406//409 414//417 413//416
f 414//417 406//409 407//410
f 407//410 415//418 414//417
f 415//418 407//410 408//411
f 408//411 416//419 415//418
f 417//420 409//412 410//413
f 410//413 418//421 417//420
f 418//421 410//413 411//414
f 411//414 419//422 418//421
f 419//422 411//414 412//415
f 412//415 420//423 419//422
f 420//423 412//415 413//416
f 413//416 421//424 420//423
f 421//424 413//416 414//417
f 414//417 422//425 421//424
f 422//425 414//417 415//418
f 415//418 423//426 422//425
f 423//426 415//418 416//419
f 416//419 424//427 423//426
f 425//428 426//429 427//430
f 427//430 428//431 425//428
f 428//431 427//430 429//432
f 429//432 430//433 428//431
f 430//433 429//432 431//434
f 431//434 432//435 430//433
f 432//435 431//434 433//436
f 433//436 434//437 432//435
f 434//437 433//436 435//438
f 435//438 436//439 434//437
f 436//439 435//438 437//440
f 437//440 438//441 436//439
f 438//441 437//440 439//442
f 439//442 440//443 438//441
f 441//444 425//428 428//431
f 428//431 442//445 441//444
f 442//445 428//431 430//433
f 430//433 443//446 442//445
f 443//446 430//433 432//435
f 432//435 444//447 443//446
f 444//447 432//435 434//437
f 434//437 445//448 444//447
f 445//448 434//437 436//439
f 436//439 446//449 445//448
f 446//449 436//439 438//441
f 438//441 447//450 446//449
f 447//450 438//441 440//443
f 440//443 448//451 447//450
f 449//452 441//444 442//445
f 442//445 450//453 449//452
f 450//453 442//445 443//446
f 443//446 451//454 450//453
f 451//454 443//446 444//447
f 444//447 452//455 451//454
f 452//455 444//447 445//448
f 445//448 453//456 452//455
f 453//456 445//448 446//449
f 446//449 454//457 453//456
f 454//457 446//449 447//450
f 447//450 455//458 454//457
f 455//458 447//450 448//451
f 448//451 456//459 455//458
f 457//460 449//452 450//453
f 450//453 458//461 457//460
f 458//461 450//453 451//454
f 451//454 459//462 458//461
f 459//462 451//454 452//455
f 452//455 460//463 459//462
f 460//463 452//455 453//456
f 453//456 461//464 460//463
f 461//464 453//456 454//457
f 454//457 462//465 461//464
f 462//465 454//457 455//458
f 455//458 463//466 462//465
f 463//466 455//458 456//459
f 456//459 464//467 463//466
f 360//363 457//460 458//461
f 458//461 361//364 360//363
f 361//364 458//461 459//462
f 459//462 363//366 361//364
f 363//366 459//462 460//463
f 460//463 364//367 363//366
f 364//367 460//463 461//464
f 461//464 365//368 364//367
f 365//368 461//464 462//465
f 462//465 366//369 365//368
f 366//369 462//465 463//466
f 463//466 367//370 366//369
f 367//370 463//466 464//467
f 464//467 368//371 367//370
f 437//440 423//426 424//427
f 424//427 439//442 437//440
f 435//438 422//425 423//426
f 423//426 437//440 435//438
f 433//436 421//424 422//425
f 422//425 435//438 433//436
f 431//434 420//423 421//424
f 421//424 433//436 431//434
f 429//432 419//422 420//423
f 420//423 431//434 429//432
f 427//430 418//421 419//422
f 419//422 429//432 427//430
f 426//429 417//420 418//421
f 418//421 427//430 426//429
f 368//371 465//468 362//365
f 465//468 466//469 362//365
f 466//469 467//470 362//365
f 467//470 468//471 362//365
f 468//471 469//472 362//365
f 469//472 470//473 362//365
f 470//473 360//363 362//365
f 384//387 383//386 471//474
f 471//474 472//475 384//387
f 472//475 471//474 473//476
f 473//476 474//477 472//475
f 474//477 473//476 475//478
f 475//478 476//479 474//477
f 476//479 475//478 477//480
f 477//480 478//481 476//479
f 478//481 477//480 479//482
f 479//482 480//483 478//481
f 480//483 479//482 481//484
f 481//484 482//485 480//483
f 482//485 481//484 370//373
f 370//373 369//372 482//485
f 392//395 384//387 472//475
f 472//475 483//486 392//395
f 483//486 472//475 474//477
f 474//477 484//487 483//486
f 484//487 474//477 476//479
f 476//479 485//488 484//487
f 485//488 476//479 478//481
f 478//481 486//489 485//488
f 486//489 478//481 480//483
f 480//483 487//490 486//489
f 487//490 480//483 482//485
f 482//485 488//491 487//490
f 488//491 482//485 369//372
f 369//372 385//388 488//491
f 400//403 392//395 483//486
f 483//486 489//492 400//403
f 489//492 483//486 484//487
f 484//487 490//493 489//492
f 490//493 484//487 485//488
f 485//488 491//494 490//493
f 491//494 485//488 486//489
f 486//489 492//495 491//494
f 492//495 486//489 487//490
f 487//490 493//496 492//495
f 493//496 487//490 488//491
f 488//491 494//497 493//496
f 494//497 488//491 385//388
f 385//388 393//396 494//497
f 408//411 400//403 489//492
f 489//492 495//498 408//411
f 495//498 489//492 490//493
f 490//493 496//499 495//498
f 496//499 490//493 491//494
f 491//494 497//500 496//499
f 497//500 491//494 492//495
f 492//495 498//501 497//500
f 498//501 492//495 493//496
f 493//496 499//502 498//501
f 499//502 493//496 494//497
f 494//497 500//503 499//502
f 500//503 494//497 393//396
f 393//396 401//404 500//503
f 416//419 408//411 495//498
f 495//498 501//504 416//419
f 501//504 495//498 496//499
f 496//499 502//505 501//504
f 502//505 496//499 497//500
f 497//500 503//506 502//505
f 503//506 497//500 498//501
f 498//501 504//507 503//506
f 504//507 498//501 499//502
f 499//502 505//508 504//507
f 505//508 499//502 500//503
f 500//503 506//509 505//508
f 506//509 500//503 401//404
f 401//404 409//412 506//509
f 424//427 416//419 501//504
f 501//504 507//510 424//427
f 507//510 501//504 502//505
f 502//505 508//511 507//510
f 508//511 502//505 503//506
f 503//506 509//512 508//511
f 509//512 503//506 504//507
f 504//507 510//513 509//512
f 510//513 504//507 505//508
f 505//508 511//514 510//513
f 511//514 505//508 506//509
f 506//509 512//515 511//514
f 512//515 506//509 409//412
f 409//412 417//420 512//515
f 440//443 439//442 513//516
f 513//516 514//517 440//443
f 514//517 513//516 515//518
f 515//518 516//519 514//517
f 516//519 515//518 517//520
f 517//520 518//521 516//519
f 518//521 517//520 519//522
f 519//522 520//523 518//521
f 520//523 519//522 521//524
f 521//524 522//525 520//523
f 522//525 521//524 523//526
f 523//526 524//527 522//525
f 524//527 523//526 426//429
f 426//429 425//428 524//527
f 448//451 440//443 514//517
f 514//517 525//528 448//451
f 525//528 514//517 516//519
f 516//519 526//529 525//528
f 526//529 516//519 518//521
f 518//521 527//530 526//529
f 527//530 518//521 520//523
f 520//523 528//531 527//530
f 528//531 520//523 522//525
f 522//525 529//532 528//531
f 529//532 522//525 524//527
f 524//527 530//533 529//532
f 530//533 524//527 425//428
f 425//428 441//444 530//533
f 456//459 448//451 525//528
f 525//528 531//534 456//459
f 531//534 525//528 526//529
f 526//529 532//535 531//534
f 532//535 526//529 527//530
f 527//530 533//536 532//535
f 533//536 527//530 528//531
f 528//531 534//537 533//536
f 534//537 528//531 529//532
f 529//532 535//538 534//537
f 535//538 529//532 530//533
f 530//533 536//539 535//538
f 536//539 530//533 441//444
f 441//444 449//452 536//539
f 464//467 456//459 531//534
f 531//534 537//540 464//467
f 537//540 531//534 532//535
f 532//535 538//541 537//540
f 538//541 532//535 533//536
f 533//536 539//542 538//541
f 539//542 533//536 534//537
f 534//537 540//543 539//542
f 540//543 534//537 535//538
f 535//538 541//544 540//543
f 541//544 535//538 536//539
f 536//539 542//545 541//544
f 542//545 536//539 449//452
f 449//452 457//460 542//545
f 368//371 464//467 537//540
f 537//540 465//468 368//371
f 465//468 537//540 538//541
f 538//541 466//469 465//468
f 466//469 538//541 539//542
f 539//542 467//470 466//469
f 467//470 539//542 540//543
f 540//543 468//471 467//470
f 468//471 540//543 541//544
f 541//544 469//472 468//471
f 469//472 541//544 542//545
f 542//545 470//473 469//472
f 470//473 542//545 457//460
f 457//460 360//363 470//473
f 523//526 512//515 417//420
f 417//420 426//429 523//526
f 521//524 511//514 512//515
f 512//515 523//526 521//524
f 519//522 510//513 511//514
f 511//514 521//524 519//522
f 517//520 509//512 510//513
f 510//513 519//522 517//520
f 515//518 508//511 509//512
f 509//512 517//520 515//518
f 513//516 507//510 508//511
f 508//511 515//518 513//516
f 439//442 424//427 507//510
f 507//510 513//516 439//442
f 543//353 544//351 545//546
f 545//546 546//547 543//353
f 547//348 543//353 546//547
f 546//547 548//548 547//348
f 549//347 547//348 548//548
f 548//548 550//549 549//347
f 544//351 549//347 550//549
f 550//549 545//546 544//351
f 551//550 552//551 553//552
f 553//552 554//553 551//550
f 555//554 556//555 551//550
f 551//550 554//553 555//554
f 553//552 557//556 555//554
f 555//554 554//553 553//552
f 552//551 558//557 557//556
f 557//556 553//552 552//551
f 551//550 556//555 558//557
f 558//557 552//551 551//550
f 546//547 545//546 558//557
f 558//557 556//555 546//547
f 555//554 548//548 546//547
f 546//547 556//555 555//554
f 557//556 550//549 548//548
f 548//548 555//554 557//556
f 558//557 545//546 550//549
f 550//549 557//556 558//557
# Vertices: 550, normals: 549, texture coordinates: 0, faces: 1082

